<?xml version="1.0" encoding="utf-8"?>
<!-- Generator: Adobe Illustrator 23.1.1, SVG Export Plug-In . SVG Version: 6.00 Build 0)  -->
<svg version="1.1" id="Layer_1" xmlns="http://www.w3.org/2000/svg" xmlns:xlink="http://www.w3.org/1999/xlink" x="0px" y="0px"
	 viewBox="0 0 2880 1800" style="enable-background:new 0 0 2880 1800;" xml:space="preserve">
<style type="text/css">
	.st0{fill:#253645;}
	.st1{clip-path:url(#SVGID_2_);}
	.st2{fill:#EF4B54;}
</style>
<rect class="st0" width="2880" height="1800"/>
<g>
	<defs>
		<rect id="SVGID_1_" width="2880" height="1800"/>
	</defs>
	<clipPath id="SVGID_2_">
		<use xlink:href="#SVGID_1_"  style="overflow:visible;"/>
	</clipPath>
	<g class="st1">
		<path class="st2" d="M2248.7,1883.6c-12.2,36.8-36.7,104.5-122.5,160.4c-73.5,48.6-174.5,63.3-246.5,63.3
			c-254.1,0-297-138.4-297-209c0-36.8,3.1-48.6,21.4-160.4l33.7-186.9c9.2-54.5,15.3-89.8,15.3-138.4c0-19.1-1.5-30.9-4.6-48.6
			h212.8c1.5,35.3,1.5,50,0,66.2c0,7.4-6.1,55.9-6.1,60.3c10.7-25,36.7-78,110.2-114.8c42.9-22.1,85.7-30.9,133.2-30.9
			c136.3,0,226.6,86.8,226.6,198.7c0,250.2-346,267.9-514.4,276.7c-6.1,16.2-13.8,36.8-13.8,66.2c0,54.5,39.8,86.8,99.5,86.8
			c108.7,0,136.3-70.7,153.1-111.9L2248.7,1883.6z M1999.2,1689.3c85.7-32.4,96.5-92.7,96.5-120.7c0-44.2-27.6-88.3-85.7-88.3
			c-113.3,0-163.8,120.7-183.7,237C1867.5,1715.8,1945.6,1709.9,1999.2,1689.3z"/>
	</g>
	<g class="st1">
		<path class="st2" d="M2139.2,577.5C2031.4,700,1900.7,744,1737.4,744c-346.2,0-534-243.4-534-560.5
			c0-160.1,58.8-342.3,205.8-433.3c-8.2-47.1-67-55-107.8-55c-31,0-60.4,4.7-89.8,12.6v-244.9c53.9-6.3,89.8-7.9,135.5-7.9
			c151.9,0,241.7,51.8,277.6,197.8c22.9-6.3,47.4-11,71.9-12.6c22.9-3.1,47.4-4.7,71.9-4.7c325,0,507.9,259.1,507.9,549.5
			C2276.3,326.3,2235.5,469.2,2139.2,577.5z M1575.8,164.6c0,64.4,4.9,152.3,21.2,216.7c19.6,70.7,60.4,119.3,143.7,119.3
			c168.2,0,163.3-191.5,163.3-307.7c0-119.3,6.5-312.4-168.2-312.4C1577.4-119.6,1575.8,51.6,1575.8,164.6z"/>
	</g>
	<g class="st1">
		<path class="st2" d="M2203.6,987.4h-75.8c46.4,21.8,88.3,50.1,88.3,133.8c0,20.7,0,81.6-58.8,118.6
			c-35.1,21.8-89.4,21.8-144.9,21.8h-366.7v-149.1h366.7c49.8,0,82.6-4.4,82.6-51.1c0-66.4-54.3-66.4-122.2-66.4h-327.1V846h557.9
			V987.4z M2374.5,1225.7c-70.2-45.7-84.9-88.1-84.9-121.9c0-45.7,41.9-92.5,41.9-131.7c0-19.6-11.3-30.5-35.1-50.1l36.2-46.8
			c67.9,52.2,79.2,87,79.2,116.4c0,23.9-2.3,30.5-27.2,89.2c-7.9,17.4-13.6,31.6-13.6,45.7c0,22.8,20.4,37,40.7,51.1L2374.5,1225.7z
			"/>
	</g>
	<g class="st1">
		<path class="st2" d="M1572.6,846.1l-126.7,730.1h-147.1l15.8-97.9c-32.8,55.5-77,104.5-155,104.5c-115.4,0-175.4-95.8-175.4-222
			c0-156.7,82.6-336.2,236.5-336.2c62.2,0,122.2,30.5,143.7,90.3l46.4-268.7H1572.6z M1221.8,1473.9c38.5,0,73.6-27.2,91.7-77.3
			c11.3-30.5,29.4-133.8,29.4-168.7c0-81.6-53.2-96.8-77-96.8c-77,0-95.1,105.5-106.4,165.4c-4.5,22.8-9.1,55.5-9.1,90.3
			C1150.5,1424.9,1168.6,1473.9,1221.8,1473.9z"/>
	</g>
	<g class="st1">
		<path class="st2" d="M420,575.1c114.6,0,226.8,16.8,336.4,52.7c24.9-184.5,97.2-237.2,286.6-237.2c34.9,0,67.3,2.4,102.2,9.6
			v227.6c-32.4-4.8-64.8-12-97.2-12c-69.8,0-137.1,31.1-147,105.4c69.8,74.3,99.7,134.2,99.7,237.2c0,287.5-321.5,371.3-563.2,371.3
			c-69.8,0-147-7.2-211.8-16.8c-34.9,19.2-62.3,47.9-62.3,88.6c0,50.3,24.9,79.1,72.3,93.4c64.8,16.8,199.4,21.6,271.6,24l159.5,7.2
			c221.8,12,471,57.5,471,323.4c0,162.9-122.1,273.1-266.6,330.6c-137.1,55.1-316.5,64.7-466,64.7c-201.8,0-652.9-7.2-652.9-282.7
			c0-124.6,104.7-196.5,219.3-220.4c-97.2-45.5-162-110.2-162-218c0-150.9,127.1-220.4,254.2-270.7
			c-137.1-50.3-224.3-150.9-224.3-297.1C-160.7,661.4,173.3,575.1,420,575.1z M654.2,1828.1c-87.2-7.2-328.9-7.2-495.9-19.2
			c-44.9,16.8-79.7,50.3-79.7,98.2c0,57.5,39.9,83.9,92.2,98.2c79.7,21.6,194.4,24,274.1,24c89.7,0,343.9,7.2,343.9-117.4
			C788.8,1847.3,706.5,1832.9,654.2,1828.1z M213.1,951.3c0,119.8,79.7,184.5,201.8,184.5c119.6,0,219.3-62.3,219.3-186.9
			c0-122.2-104.7-179.7-219.3-179.7C297.9,769.2,213.1,836.3,213.1,951.3z"/>
	</g>
	<g class="st1">
		<path class="st2" d="M2492,589.8c-48.2-108-119.5-327.6-119.5-499c0-341.3,181.9-547.1,392.4-547.1
			c219.4,0,299.7,114.9,299.7,344.7c0,368.7-217.6,535.1-369.2,535.1c-37.5,0-87.4-6.9-140.9-51.4c30.3,97.8,44.6,138.9,60.6,180.1
			l226.5-72l37.5,101.2l-223,68.6c10.7,25.7,21.4,48,33.9,73.7l-117.7,37.7c-14.3-24-25-49.7-37.5-72l-219.4,70.3l-39.2-101.2
			L2492,589.8z M2759.5-355.1c-181.9,3.4-246.2,303.5-247.9,461.3c-1.8,161.2,67.8,216.1,169.5,216.1
			c144.5,0,242.6-222.9,242.6-433.9C2923.6-308.8,2848.7-355.1,2759.5-355.1z"/>
	</g>
	<g class="st1">
		<path class="st2" d="M2731.6,1097.8c2.6,0.8,16.8,2.5,24.7,2.5c38,0,60-23.8,60-56.9c0-46.7-38-61.9-53.8-67.9l22.9-130.7
			c28.2,12.7,77.7,33.9,116.5,103.5c12.4,20.4,26.5,53.5,26.5,110.3c0,61.1-18.5,89.9-40.6,122.2c19.4,28,41.5,60.2,41.5,122.2
			c0,101-63.5,196-199.5,196c-131.5,0-261.2-81.5-261.2-230c0-72.1,25.6-101.8,43.2-122.2c-14.1-20.4-41.5-58.5-41.5-132.4
			c0-138.3,108.6-190.1,206.5-190.1c18.5,0,31.8,1.7,54.7,4.2V1097.8z M2646,970.5c-14.1-3.4-19.4-3.4-23.8-3.4
			c-30,0-53.8,17.8-53.8,50.1c0,48.4,48.5,61.1,77.7,68.7V970.5z M2632.8,1226.7c-12.4,0-58.3,0-58.3,44.1
			c0,35.6,32.7,45.8,48.5,50.9c55.6,17.8,113,23.8,138.6,23.8c15.9,0,60.9-2.5,60.9-45c0-19.5-9.7-30.5-21.2-38.2
			c-27.4-17.8-75-25.5-90-28C2685.7,1231,2659.3,1226.7,2632.8,1226.7z"/>
	</g>
	<g class="st1">
		<path class="st2" d="M1225.7,1869.5h56.2l13.3-59.9h-56.8l12.2-55.2h56.8l24.9-114.6h52.7l-25.5,114.6h56.2l24.9-114.6h53.3
			l-25.5,115.2h58l-11.6,54.7h-59.1l-13.3,59.9h59.1l-12.2,55.2h-59.1l-23.2,107h-52.7l23.8-107h-55.1l-23.8,107h-52.2l23.2-107
			h-56.8L1225.7,1869.5z M1335.3,1869.5h55.1l12.7-59.9H1348L1335.3,1869.5z"/>
	</g>
	<g class="st1">
		<path class="st2" d="M3058.1,1894.5v109.4l-393.5-63.1v57.5l-85.8-13v-62.1c-69.4-19.5-77.2-21.3-100.3-33.4
			c-46.3-24.1-86.8-65.8-86.8-157.6c0-25,1-38.9,3.9-54.7l88.7,13.9c-2.9,14.8-2.9,25-2.9,35.2c0,15.8,3.9,49.1,32.8,68.6
			c7.7,5.6,16.4,8.3,64.6,20.4v-97.4l85.8,14.8v100.1L3058.1,1894.5z M2526.6,1556.9v105.7l-114.8-18.5v-105.7L2526.6,1556.9z
			 M3058.1,1642.2v105.7l-479.3-77v-105.7L3058.1,1642.2z"/>
	</g>
	<g class="st1">
		<path class="st2" d="M-82.4-1062.8h409.7L89.6,298.6H-318L-82.4-1062.8z M803.9,59.3c-29.7,167.4-48.8,275.5-157.1,347
			c-55.2,36.7-135.9,73.5-297.2,73.5c-93.4,0-140.1-10.2-199.6-22.5l42.5-236.8c27.6,4.1,59.4,6.1,76.4,6.1
			c114.6,0,133.7-81.6,144.4-167.4H249.8L296.5-200h161.3l131.6-747h390.6L848.5-200h174.1L975.8,59.3H803.9z"/>
	</g>
</g>
</svg>
